<?xml version="1.0" encoding="UTF-8"?>
<!DOCTYPE svg PUBLIC "-//W3C//DTD SVG 1.1//EN" "http://www.w3.org/Graphics/SVG/1.1/DTD/svg11.dtd">
<!-- Creator: CorelDRAW X7 -->
<svg xmlns="http://www.w3.org/2000/svg" xml:space="preserve" width="1920px" height="1080px" version="1.1" style="shape-rendering:geometricPrecision; text-rendering:geometricPrecision; image-rendering:optimizeQuality; fill-rule:evenodd; clip-rule:evenodd"
viewBox="0 0 1920 1080"
 xmlns:xlink="http://www.w3.org/1999/xlink">
 <defs>
  <style type="text/css">
   <![CDATA[
    .str0 {stroke:black;stroke-width:0.9}
    .fil1 {fill:none}
    .fil2 {fill:white;fill-rule:nonzero}
    .fil3 {fill:black;fill-opacity:0.501961}
    .fil0 {fill:url(#id3)}
   ]]>
  </style>
   <clipPath id="id0">
    <path d="M521 146l877 0c8,0 14,6 14,14l0 760c0,8 -6,14 -14,14l-877 0c-7,0 -14,-6 -14,-14l0 -760c0,-8 7,-14 14,-14z"/>
   </clipPath>
    <clipPath id="id1">
     <path d="M1399 146c7,0 13,6 13,14l0 760c0,8 -6,14 -14,14l-877 0c-7,0 -14,-6 -14,-14l0 -760c0,-8 7,-14 14,-14l878 0z"/>
    </clipPath>
    <clipPath id="id2">
     <path d="M521 146l877 0c8,0 14,6 14,14l0 760c0,8 -6,14 -14,14l-877 0c-7,0 -14,-6 -14,-14l0 -760c0,-8 7,-14 14,-14z"/>
    </clipPath>
  <linearGradient id="id3" gradientUnits="userSpaceOnUse" x1="611.289" y1="801.531" x2="1308.71" y2="278.466">
   <stop offset="0" style="stop-opacity:1; stop-color:#63F07F"/>
   <stop offset="1" style="stop-opacity:1; stop-color:#42DBE9"/>
  </linearGradient>
 </defs>
 <g id="Layer_x0020_1">
  <metadata id="CorelCorpID_0Corel-Layer"/>
  <path class="fil0" d="M521 141l877 0c11,0 19,9 19,19l0 760c0,10 -8,19 -19,19l-877 0c-10,0 -18,-9 -18,-19l0 -760c0,-10 8,-19 18,-19zm0 5l877 0c8,0 14,6 14,14l0 760c0,8 -6,14 -14,14l-877 0c-7,0 -14,-6 -14,-14l0 -760c0,-8 7,-14 14,-14z"/>
  <g>
  </g>
  <g style="clip-path:url(#id0)">
   <g>
   </g>
   <g style="clip-path:url(#id1)">
    <image x="437" y="146" width="1046" height="788" xlink:href="Synonimity - website card for synontech_Images\Synonimity - website card for synontech_ImgID1.png"/>
   </g>
   <g style="clip-path:url(#id2)">
   </g>
  </g>
  <path class="fil1 str0" d="M521 146l877 0c8,0 14,6 14,14l0 760c0,8 -6,14 -14,14l-877 0c-7,0 -14,-6 -14,-14l0 -760c0,-8 7,-14 14,-14z"/>
  <path class="fil2" d="M1078 650l0 -48 5 0 0 19c1,-2 2,-3 4,-4 1,-1 4,-1 7,-1 4,0 7,1 9,2 2,2 3,5 3,10l0 22 -5 0 0 -21c0,-4 -1,-6 -2,-7 -1,-1 -3,-2 -6,-2 -3,0 -6,1 -8,3 -1,1 -2,4 -2,7l0 20 -5 0zm-129 0l0 -34 5 0 0 5c0,-2 2,-3 4,-4 1,-1 4,-1 7,-1 4,0 7,1 9,2 2,2 2,5 2,10l0 22 -5 0 0 -21c0,-4 0,-6 -1,-7 -1,-1 -3,-2 -6,-2 -4,0 -6,1 -8,3 -1,1 -2,4 -2,7l0 20 -5 0zm-67 0l0 -34 4 0 0 5c1,-2 3,-3 4,-4 2,-1 4,-1 7,-1 5,0 8,1 10,2 1,2 2,5 2,10l0 22 -5 0 0 -21c0,-4 0,-6 -1,-7 -1,-1 -3,-2 -6,-2 -4,0 -6,1 -8,3 -2,1 -2,4 -2,7l0 20 -5 0zm-68 -10l5 0 0 0c0,2 1,4 2,5 2,0 4,1 8,1 4,0 7,-1 8,-1 1,-1 1,-3 1,-5 0,-2 0,-4 -1,-4 -1,-1 -3,-2 -6,-2 -1,0 -3,0 -5,0 -4,0 -7,0 -8,-1 -1,-1 -2,-1 -3,-3 0,-1 0,-3 0,-5 0,-4 1,-6 2,-7 2,-2 7,-2 13,-2 5,0 8,0 10,2 2,1 3,3 3,6l-5 0 0 0c0,-2 -1,-3 -2,-3 -1,-1 -4,-1 -8,-1 -3,0 -6,0 -7,1 -1,1 -1,2 -1,4 0,1 0,2 0,3 0,0 0,1 1,1 1,1 3,1 7,1 0,0 1,0 2,0 2,0 5,0 6,1 2,0 3,0 4,0 1,1 2,2 3,3 0,1 1,3 1,6 0,2 -1,4 -1,5 -1,2 -2,3 -4,4 0,0 -2,0 -3,1 -2,0 -4,0 -7,0 -6,0 -10,-1 -12,-2 -2,-1 -3,-4 -3,-8l0 0zm39 23l-10 0 0 -5 10 0c2,0 3,-1 5,-2 0,-1 0,-2 1,-3l0 -1 -3 -9 -9 -27 5 0 10 29 10 -29 5 0 -13 36c-1,4 -3,7 -4,8 -1,2 -3,2 -5,2 0,1 -1,1 -2,1zm72 -43c-3,0 -6,3 -6,6l0 13c0,4 3,6 6,6l8 0c3,0 6,-2 6,-6l0 -13c0,-3 -3,-6 -6,-6l-8 0zm0 -4l8 0c6,0 11,4 11,10l0 13c0,6 -5,11 -11,11l-8 0c-6,0 -11,-5 -11,-11l0 -13c0,-6 5,-10 11,-10zm95 4l8 0c3,0 6,3 6,6l0 3 -20 0 0 -3c0,-3 3,-6 6,-6zm14 18l0 1c0,4 -3,6 -6,6l-8 0c-3,0 -6,-2 -6,-6l0 -5 5 0 15 0 4 0 0 -8c0,-6 -4,-10 -10,-10l-8 0c-6,0 -11,4 -11,10l0 13c0,6 5,11 11,11l8 0c6,0 10,-5 10,-11l0 -1 -4 0zm20 -18l8 0c4,0 6,3 6,6l0 2 5 0 0 -2c0,-6 -5,-10 -11,-10l-8 0c-6,0 -10,4 -10,10l0 13c0,6 4,11 10,11l8 0c6,0 11,-5 11,-11l0 -2 -5 0 0 2c0,4 -2,6 -6,6l-8 0c-3,0 -6,-2 -6,-6l0 -13c0,-3 3,-6 6,-6zm-67 -11l0 7 -5 0 0 5 5 0 0 29 5 0 0 -29 13 0 0 -5 -13 0 0 -7 -5 0z"/>
  <path class="fil3" d="M1398 934l-877 0c-7,0 -14,-6 -14,-14l0 -166 905 0 0 166c0,8 -6,14 -14,14z"/>
 </g>
</svg>
